<?xml version="1.0" standalone="no"?>
<!DOCTYPE svg PUBLIC "-//W3C//DTD SVG 20010904//EN"
 "http://www.w3.org/TR/2001/REC-SVG-20010904/DTD/svg10.dtd">
<svg version="1.0" xmlns="http://www.w3.org/2000/svg"
 width="853.000000pt" height="850.000000pt" viewBox="0 0 853.000000 850.000000"
 preserveAspectRatio="xMidYMid meet">

<g transform="translate(0.000000,850.000000) scale(0.100000,-0.100000)"
fill="#000000" stroke="none">
<path d="M4060 8170 c-304 -24 -796 -122 -1054 -209 -242 -83 -316 -112 -531
-213 -227 -107 -287 -139 -425 -231 -256 -171 -341 -241 -541 -444 -266 -269
-403 -443 -582 -738 -257 -426 -411 -743 -502 -1035 -20 -63 -50 -160 -68
-215 -27 -85 -32 -116 -33 -210 -2 -132 41 -381 77 -445 12 -21 51 -64 86 -94
51 -44 74 -57 120 -66 78 -17 119 -9 187 35 76 48 214 185 259 255 90 144 133
247 193 472 25 94 63 224 85 287 54 158 101 320 96 334 -5 15 -43 -50 -87
-149 -38 -86 -58 -119 -45 -74 4 14 32 90 62 170 67 178 69 185 55 176 -7 -4
-12 -4 -12 -1 0 4 40 88 88 188 59 120 115 218 165 287 41 58 73 107 70 110
-7 7 -115 -111 -181 -197 -30 -40 -57 -73 -59 -73 -8 0 68 133 121 209 28 41
84 110 125 153 74 79 110 103 71 47 -43 -60 -11 -40 44 28 148 184 214 268
210 273 -3 2 -77 -68 -166 -155 -88 -88 -157 -153 -152 -145 4 8 65 81 136
161 168 193 227 243 466 393 23 14 42 33 42 40 0 20 278 154 445 215 77 28
185 69 240 91 256 100 599 171 974 202 228 18 699 -1 996 -42 127 -17 259 -39
295 -49 201 -57 315 -98 490 -176 344 -153 435 -206 623 -363 45 -38 102 -82
127 -99 53 -36 294 -255 361 -328 75 -81 88 -99 253 -344 291 -432 359 -569
484 -976 49 -159 99 -306 111 -325 11 -19 21 -46 21 -59 0 -23 -1 -23 -18 -8
-37 34 -42 22 -42 -91 0 -60 3 -112 8 -116 4 -4 7 -71 8 -149 1 -78 5 -179 10
-225 6 -45 7 -88 3 -94 -17 -26 -27 10 -33 114 -11 185 -45 407 -71 463 -13
28 -27 68 -33 90 -5 22 -19 63 -30 90 -12 28 -23 59 -27 69 -3 10 -7 17 -10
15 -2 -3 9 -69 25 -148 82 -405 86 -712 19 -1276 -19 -154 -62 -334 -136 -558
-40 -123 -264 -584 -322 -662 -20 -27 -65 -93 -101 -145 -172 -256 -327 -427
-620 -686 -63 -56 -133 -121 -155 -144 -22 -23 -58 -51 -80 -62 -22 -11 -75
-47 -117 -78 -79 -60 -308 -181 -458 -243 -150 -62 -510 -177 -699 -223 -101
-24 -186 -42 -189 -39 -6 6 44 25 66 25 28 0 62 12 62 21 0 12 -34 11 -62 -1
-13 -6 -84 -22 -158 -35 l-135 -25 100 5 c60 2 92 1 79 -4 -33 -14 -166 -33
-199 -29 l-30 4 25 11 c23 11 21 12 -22 12 -55 1 -78 -6 -78 -25 0 -21 -257
-20 -284 1 -11 8 -36 15 -55 15 -26 0 -32 -3 -21 -10 37 -23 -18 -22 -243 8
-275 37 -434 71 -658 143 -319 102 -735 288 -934 417 -188 122 -472 378 -597
539 -105 136 -141 184 -177 236 -22 33 -36 45 -41 37 -5 -7 -42 40 -102 132
-164 247 -214 338 -363 661 -37 81 -71 147 -75 147 -4 0 12 -48 36 -107 26
-61 40 -109 35 -112 -5 -4 29 -78 76 -166 83 -155 154 -304 168 -355 l7 -25
-17 23 c-42 58 -224 384 -239 429 -9 27 -29 70 -44 94 -15 24 -36 63 -46 87
-11 23 -21 40 -24 37 -8 -8 138 -351 185 -432 24 -43 60 -109 80 -147 19 -38
89 -150 154 -248 66 -99 123 -187 126 -196 8 -23 -162 211 -195 268 -14 25
-40 63 -58 85 -70 88 -242 422 -298 579 -3 10 -9 16 -12 13 -3 -3 8 -48 25
-101 17 -53 31 -100 31 -106 0 -20 133 -311 177 -386 25 -44 63 -110 85 -149
23 -38 94 -139 160 -223 66 -84 118 -156 115 -159 -7 -6 -188 222 -249 313
-83 126 -254 416 -288 489 -18 39 -50 115 -71 170 -20 55 -58 152 -83 215 -46
115 -128 371 -142 446 -4 21 -9 34 -11 28 -6 -17 32 -178 98 -416 32 -119 61
-234 63 -255 13 -122 170 -476 292 -658 256 -382 563 -732 814 -926 290 -224
518 -353 882 -498 587 -234 977 -307 1628 -305 271 0 295 2 490 33 297 47 422
75 630 142 248 80 415 147 591 234 286 144 451 249 724 464 296 232 544 510
785 881 209 320 304 507 364 716 14 50 55 183 92 295 87 268 109 382 133 679
36 452 28 635 -45 1005 -45 230 -64 305 -124 495 -27 85 -59 188 -71 228 -30
101 -170 379 -278 554 -50 81 -91 152 -91 159 0 7 -20 34 -45 60 -25 26 -45
57 -45 68 0 20 -88 142 -182 252 -45 54 -280 272 -326 305 -49 34 -15 -1 120
-123 128 -116 258 -259 258 -284 0 -6 -39 31 -86 80 -47 50 -141 137 -207 193
-67 57 -156 135 -197 173 -42 39 -119 96 -172 127 -53 32 -142 92 -197 133
-73 54 -166 108 -339 194 -236 118 -306 160 -269 161 23 0 255 -98 369 -157
48 -25 120 -68 160 -97 41 -29 123 -85 183 -126 61 -40 135 -92 165 -115 30
-22 68 -49 84 -59 l28 -18 -18 32 c-12 20 -99 87 -243 188 -123 86 -218 158
-212 160 27 9 332 -198 541 -366 85 -68 357 -329 419 -403 31 -36 106 -134
166 -217 61 -84 113 -152 118 -152 4 0 -2 19 -14 43 -37 75 6 19 76 -98 151
-250 275 -549 431 -1034 2 -8 7 -11 10 -8 9 8 -33 171 -82 322 -102 314 -271
689 -388 863 -99 147 -252 347 -331 430 -79 85 -387 365 -466 425 -24 19 -90
66 -147 105 -56 38 -97 72 -90 74 7 3 -11 20 -39 39 -65 42 -70 60 -6 25 80
-45 57 -22 -33 33 -47 29 -83 55 -81 58 20 19 286 -155 545 -357 185 -143 258
-187 115 -69 -118 99 -111 92 -88 84 l20 -6 -20 20 c-33 32 -361 268 -427 306
-33 20 -63 33 -66 30 -3 -3 1 -5 8 -5 7 0 11 -2 8 -5 -8 -8 -58 16 -58 27 0 5
5 6 10 3 6 -3 10 -2 10 2 0 22 -286 175 -450 241 -464 186 -742 249 -1300 293
-215 17 -311 20 -510 15 -279 -7 -363 -15 -579 -57 -84 -16 -155 -28 -157 -26
-2 2 17 13 44 25 33 15 134 34 337 63 282 41 299 42 613 47 429 6 428 22 -3
42 -222 10 -257 10 -395 0z m-1040 -275 c0 -7 -70 -41 -152 -74 -79 -31 -218
-72 -218 -65 0 11 191 95 270 118 91 27 100 29 100 21z m1872 -50 c84 -14 175
-25 203 -25 27 0 95 -11 150 -25 127 -31 399 -121 388 -128 -14 -9 -89 9 -288
68 -164 48 -221 60 -414 85 -123 15 -228 33 -234 39 -17 17 25 14 195 -14z
m-357 -66 c105 -5 222 -17 260 -25 39 -7 83 -14 98 -14 16 0 26 -4 22 -10 -9
-15 -83 -12 -250 9 -90 12 -259 23 -425 27 -151 5 -259 11 -240 15 57 10 330
10 535 -2z m705 -84 c46 -18 28 -18 -35 -1 -30 9 -40 14 -25 14 14 0 41 -6 60
-13z m284 -86 c-8 -13 -30 -11 -43 4 -8 11 -5 13 19 9 16 -2 27 -8 24 -13z
m166 -25 c25 -15 25 -15 -10 -8 -48 9 -73 23 -40 23 14 0 36 -6 50 -15z m383
-83 c62 -28 171 -101 152 -101 -15 0 -242 130 -227 130 7 0 40 -13 75 -29z
m241 14 c15 -11 16 -15 5 -15 -8 0 -24 7 -35 15 -14 11 -15 14 -4 14 8 0 24
-6 34 -14z m262 -70 c10 -8 15 -14 9 -14 -5 0 -19 6 -29 14 -11 8 -15 15 -10
15 6 0 19 -7 30 -15z m1064 -1854 c42 -84 82 -182 76 -188 -2 -2 -16 25 -31
59 -15 35 -43 94 -62 132 -35 73 -36 76 -28 76 3 0 23 -36 45 -79z m130 -1562
c0 -11 -4 -17 -10 -14 -5 3 -10 15 -10 26 0 11 5 17 10 14 6 -3 10 -15 10 -26z
m206 -431 c-27 -321 -223 -910 -390 -1168 -20 -30 -36 -52 -36 -48 0 3 25 62
56 130 67 148 122 285 158 393 59 180 172 594 196 718 6 31 14 57 17 57 3 0 2
-37 -1 -82z m-7232 -1037 c29 -72 27 -99 -3 -30 -19 44 -37 108 -28 99 3 -3
17 -34 31 -69z m6786 -269 c0 -27 -98 -193 -180 -305 -139 -189 -390 -475
-390 -443 0 2 37 48 81 102 45 55 134 178 197 274 64 96 149 223 190 283 69
101 102 130 102 89z m-6256 -204 l19 -33 -25 25 c-14 14 -35 43 -47 65 l-23
40 29 -32 c15 -17 36 -46 47 -65z m5656 -219 c0 -16 -133 -155 -194 -204 -65
-52 -45 -23 79 108 97 104 115 119 115 96z m-5297 -214 c17 -26 14 -24 -22 10
-23 22 -47 49 -53 60 -15 27 47 -30 75 -70z m4891 -216 c-12 -13 -20 -16 -22
-9 -3 7 2 16 9 21 25 16 32 9 13 -12z m256 -103 c0 -2 -8 -10 -17 -17 -16 -13
-17 -12 -4 4 13 16 21 21 21 13z"/>
<path d="M5120 8101 c0 -4 36 -16 80 -28 77 -20 114 -16 48 6 -49 16 -128 29
-128 22z"/>
<path d="M4155 7509 c-404 -14 -616 -35 -800 -80 -135 -33 -385 -118 -495
-169 -58 -26 -142 -64 -186 -82 -87 -37 -248 -134 -279 -168 -30 -33 -7 -37
43 -7 113 68 344 171 557 250 187 70 263 92 405 121 96 20 186 38 200 41 20 4
22 3 8 -5 -9 -5 -56 -19 -105 -31 -218 -51 -531 -151 -737 -235 -147 -60 -357
-170 -443 -230 -91 -65 -249 -219 -333 -324 -142 -179 -114 -173 62 13 133
140 292 275 404 342 32 19 62 35 67 35 10 0 -36 -59 -80 -102 -40 -41 -15 -34
50 12 98 70 285 161 456 222 425 151 571 199 631 208 335 51 488 64 750 65
223 0 295 -4 451 -24 113 -14 201 -21 223 -17 21 4 36 9 33 12 -2 2 -49 13
-103 23 -89 17 -149 24 -434 49 l-85 8 137 8 c75 4 159 5 185 2 26 -3 109 -13
183 -22 74 -9 157 -25 183 -35 26 -11 65 -19 87 -19 21 0 65 -7 96 -15 69 -18
226 -31 204 -17 -8 6 -51 18 -95 27 -44 10 -105 27 -135 37 -49 17 -160 41
-390 83 -78 14 -385 36 -462 33 -23 0 -137 -5 -253 -9z m-849 -244 c-11 -8
-31 -15 -45 -14 -24 0 -23 2 9 14 46 18 59 18 36 0z m-136 -45 c-20 -13 -33
-13 -25 0 3 6 14 10 23 10 15 0 15 -2 2 -10z"/>
<path d="M5524 7308 c-10 -15 5 -23 50 -24 27 -1 58 -11 84 -28 23 -14 66 -36
95 -47 28 -11 95 -42 147 -68 52 -27 111 -52 130 -56 19 -4 64 -26 100 -48 91
-57 407 -295 515 -388 95 -81 264 -252 329 -331 21 -27 44 -48 51 -48 6 0 41
-44 77 -97 78 -118 208 -298 208 -289 0 13 -71 147 -126 237 -103 170 -192
280 -383 470 -193 192 -286 264 -506 393 -49 29 -120 71 -156 93 -109 68 -218
119 -341 162 -64 22 -129 46 -145 54 -35 18 -121 28 -129 15z"/>
<path d="M5162 7305 c5 -5 58 -21 120 -37 441 -115 845 -318 1203 -604 127
-102 353 -324 444 -436 163 -203 353 -495 413 -638 21 -48 43 -86 52 -88 30
-6 16 38 -56 176 -95 181 -131 239 -257 416 -110 155 -280 339 -431 466 -41
35 -115 104 -165 155 -181 184 -406 315 -769 447 -78 28 -157 59 -176 68 -56
28 -398 95 -378 75z"/>
<path d="M7040 7106 c0 -3 15 -15 33 -27 l32 -23 -24 27 c-22 24 -41 35 -41
23z"/>
<path d="M2725 6983 c-102 -40 -205 -104 -250 -153 -30 -33 -28 -32 70 19 107
57 285 161 285 167 0 8 -18 3 -105 -33z"/>
<path d="M7380 6665 c0 -4 17 -28 39 -54 21 -25 41 -56 45 -69 4 -12 44 -73
88 -135 127 -176 235 -360 252 -430 4 -16 33 -84 65 -150 69 -144 81 -173 161
-382 34 -88 64 -162 67 -165 10 -9 -8 63 -58 230 -83 282 -105 329 -343 724
-121 201 -316 467 -316 431z"/>
<path d="M7654 6472 c8 -24 -3 -29 -22 -10 -7 7 -12 8 -12 1 0 -5 48 -77 107
-159 58 -82 123 -185 143 -229 102 -218 141 -297 145 -293 10 9 -72 214 -159
399 -38 82 -161 275 -191 299 -16 14 -17 13 -11 -8z"/>
<path d="M7607 5255 c7 -32 29 -51 36 -31 6 14 -18 56 -32 56 -5 0 -6 -11 -4
-25z"/>
<path d="M8108 5205 c2 -14 9 -28 15 -32 7 -4 8 0 4 11 -4 10 -7 24 -7 32 0 8
-4 14 -9 14 -4 0 -6 -11 -3 -25z"/>
<path d="M7640 5162 c0 -11 7 -25 15 -32 12 -10 15 -9 15 8 0 11 -7 25 -15 32
-12 10 -15 9 -15 -8z"/>
<path d="M7521 5141 c-1 -19 21 -94 31 -106 5 -5 5 6 2 25 -8 42 -32 101 -33
81z"/>
<path d="M8140 5012 c0 -21 7 -94 16 -162 30 -247 34 -288 44 -510 6 -124 14
-240 18 -259 6 -30 10 -20 30 80 23 120 26 196 12 319 -12 105 -87 547 -95
560 -13 21 -25 9 -25 -28z"/>
<path d="M420 3838 c0 -7 5 -20 10 -28 8 -12 10 -11 10 7 0 12 -4 25 -10 28
-5 3 -10 0 -10 -7z"/>
<path d="M496 3775 c37 -245 156 -726 194 -785 13 -20 13 -8 -1 27 -17 45 -94
362 -140 573 -38 180 -68 283 -53 185z"/>
<path d="M461 3605 c0 -11 4 -27 9 -35 9 -13 10 -13 9 0 0 8 -4 24 -9 35 l-9
20 0 -20z"/>
<path d="M750 3277 c0 -28 78 -230 80 -207 0 7 -71 204 -76 209 -2 2 -4 2 -4
-2z"/>
<path d="M1045 2670 c3 -5 8 -10 11 -10 2 0 4 5 4 10 0 6 -5 10 -11 10 -5 0
-7 -4 -4 -10z"/>
<path d="M1126 2505 c31 -71 75 -148 81 -141 5 5 -69 153 -92 182 -8 11 -3 -8
11 -41z"/>
<path d="M1290 2251 c0 -5 5 -13 10 -16 6 -3 10 -2 10 4 0 5 -4 13 -10 16 -5
3 -10 2 -10 -4z"/>
<path d="M1510 1941 c0 -5 7 -15 17 -22 15 -13 15 -12 4 9 -12 23 -21 28 -21
13z"/>
<path d="M1540 1893 c0 -5 14 -24 30 -43 l31 -35 -15 31 c-15 32 -46 63 -46
47z"/>
<path d="M1660 1760 c0 -5 5 -10 10 -10 6 0 10 5 10 10 0 6 -4 10 -10 10 -5 0
-10 -4 -10 -10z"/>
<path d="M1725 1690 c10 -11 20 -18 23 -15 7 6 -18 35 -31 35 -5 0 -2 -9 8
-20z"/>
<path d="M1800 1615 c7 -9 15 -13 17 -11 7 7 -7 26 -19 26 -6 0 -6 -6 2 -15z"/>
<path d="M1910 1529 c0 -17 83 -92 160 -145 294 -201 748 -394 1175 -499 164
-40 286 -64 327 -65 20 0 76 -10 125 -22 48 -11 124 -22 168 -23 44 -2 159 -8
255 -15 213 -15 303 -6 543 51 142 34 172 39 201 29 39 -12 63 -6 91 26 11 12
47 30 80 39 33 10 54 20 48 22 -7 3 -34 -2 -60 -11 -75 -24 -285 -73 -423 -98
-111 -20 -159 -22 -420 -23 -274 0 -308 2 -475 28 -99 15 -216 36 -260 47 -44
10 -119 25 -167 34 -141 27 -697 230 -883 323 -144 73 -301 169 -392 240 -51
40 -93 68 -93 62z"/>
<path d="M5485 1075 c-16 -7 -23 -14 -14 -14 8 -1 24 6 35 14 24 18 18 18 -21
0z"/>
<path d="M5408 1048 c-16 -5 -28 -14 -28 -18 0 -5 14 -4 30 1 17 6 30 15 30
20 0 5 -1 9 -2 8 -2 0 -15 -5 -30 -11z"/>
<path d="M5200 970 c-13 -8 -12 -10 3 -10 9 0 17 5 17 10 0 12 -1 12 -20 0z"/>
</g>
</svg>
